<svg width="621" height="358" viewBox="0 0 621 358" fill="none" xmlns="http://www.w3.org/2000/svg">
<path d="M456.379 6.26318L458.036 9.96826L606.674 342.21L610.62 351.032H545.004L543.363 347.277L398.108 15.0347L394.273 6.26318H456.379Z" stroke="#001A68" stroke-width="12.5261"/>
<path d="M222.803 7.82861L219.877 14.4292L71.2744 349.645L70.0361 352.439H7.25391L10.2217 345.82L160.527 10.604L161.771 7.82861H222.803Z" fill="#001A68" stroke="#001A68" stroke-width="9.39458"/>
<mask id="path-3-outside-1_165_12" maskUnits="userSpaceOnUse" x="120.065" y="4.53027" width="379" height="352" fill="black">
<rect fill="white" x="120.065" y="4.53027" width="379" height="352"/>
<path d="M484.101 346.996H432.54L382.135 231.286H236.396L186.627 346.996H135.065L284.458 14.5303H334.708L484.101 346.996ZM261.631 172.616H356.102L319.769 91.1279H296.681L261.631 172.616Z"/>
</mask>
<path d="M484.101 346.996V356.391H498.622L492.67 343.146L484.101 346.996ZM432.54 346.996L423.927 350.748L426.385 356.391H432.54V346.996ZM382.135 231.286L390.748 227.534L388.29 221.892H382.135V231.286ZM236.396 231.286V221.892H230.21L227.766 227.574L236.396 231.286ZM186.627 346.996V356.391H192.813L195.258 350.708L186.627 346.996ZM135.065 346.996L126.496 343.146L120.544 356.391H135.065V346.996ZM284.458 14.5303V5.1357H278.38L275.889 10.6797L284.458 14.5303ZM334.708 14.5303L343.278 10.6797L340.787 5.1357H334.708V14.5303ZM261.631 172.616L253.001 168.904L247.364 182.011H261.631V172.616ZM356.102 172.616V182.011H370.577L364.682 168.791L356.102 172.616ZM319.769 91.1279L328.349 87.3022L325.866 81.7334H319.769V91.1279ZM296.681 91.1279V81.7334H290.495L288.051 87.4159L296.681 91.1279ZM484.101 346.996V337.602H432.54V346.996V356.391H484.101V346.996ZM432.54 346.996L441.152 343.244L390.748 227.534L382.135 231.286L373.522 235.038L423.927 350.748L432.54 346.996ZM382.135 231.286V221.892H236.396V231.286V240.681H382.135V231.286ZM236.396 231.286L227.766 227.574L177.997 343.284L186.627 346.996L195.258 350.708L245.026 234.998L236.396 231.286ZM186.627 346.996V337.602H135.065V346.996V356.391H186.627V346.996ZM135.065 346.996L143.634 350.847L293.028 18.3808L284.458 14.5303L275.889 10.6797L126.496 343.146L135.065 346.996ZM284.458 14.5303V23.9249H334.708V14.5303V5.1357H284.458V14.5303ZM334.708 14.5303L326.139 18.3808L475.532 350.847L484.101 346.996L492.67 343.146L343.278 10.6797L334.708 14.5303ZM261.631 172.616V182.011H356.102V172.616V163.222H261.631V172.616ZM356.102 172.616L364.682 168.791L328.349 87.3022L319.769 91.1279L311.189 94.9536L347.522 176.442L356.102 172.616ZM319.769 91.1279V81.7334H296.681V91.1279V100.523H319.769V91.1279ZM296.681 91.1279L288.051 87.4159L253.001 168.904L261.631 172.616L270.261 176.328L305.311 94.8399L296.681 91.1279Z" fill="#001A68" mask="url(#path-3-outside-1_165_12)"/>
<path d="M334.729 14.0435L334.921 14.4526L377.517 105.132L377.994 106.146H291.532L262.516 173.104H355.73L355.917 173.528L381.228 230.759L381.669 231.759H236.877L188.627 346.531L188.441 346.973L187.96 346.966L136.722 346.223L135.641 346.208L136.083 345.22L284.242 14.4644L284.43 14.0435H334.729Z" fill="#001A68" stroke="#001A68" stroke-width="1.42342"/>
</svg>
